/* XPM */
static char *_b007ba68e9d4bfcf41606d589e74845Hpo4YZeemOHm7alS[] = {
/* columns rows colors chars-per-pixel */
"34 34 13 1 ",
"  c #EDAB50",
". c #391781",
"X c #260A53",
"o c #5735BE",
"O c #4828A9",
"+ c #52095D",
"@ c #6B0E73",
"# c #8E1B90",
"$ c #3F044F",
"% c #B71737",
"& c #9A0524",
"* c #85030C",
"= c #350E73",
/* pixels */
"                                  ",
"                                  ",
"                                  ",
"                                  ",
"                                  ",
"                                  ",
"                                  ",
"                                  ",
"                                  ",
"           ....... ..             ",
"         X.ooooooo.oo.            ",
"         .oOOOOOOOooo.            ",
"        .OOOOOOOOOOOoo.           ",
"        .OOOOOOOOOOOOO.           ",
"       +.OOOO....OOOOO.@@@        ",
"     ++.OOO.........O@@###@       ",
"    ++$.%O.....%&...+##@@@#@      ",
"    +$$X&%....%&*..+@@@@#@@#@     ",
"   +$$$X**....**=..$$+@@@#@@#+    ",
"   +$$$X==....==...==$++@@@@++    ",
"   $$$$X..=..=.....===$++@@+++    ",
"   $$$$$X.=..=......==X$+++++$    ",
"   $$$$ X=...........=X $$$+$$    ",
"   $$$   X===.....===X    $$$$    ",
"          XXX=====XXX       $$    ",
"             XXXXX                ",
"                                  ",
"                                  ",
"                                  ",
"                                  ",
"                                  ",
"                                  ",
"                                  ",
"                                  "
};
