/* XPM */
static char *_d91184807d94b3d9ac55dd97250344902fx9MyeqCymmv36[] = {
/* columns rows colors chars-per-pixel */
"34 34 6 1 ",
"  c #EDAB50",
". c black",
"X c #E0C726",
"o c #FFF194",
"O c #AA9719",
"+ c #C7B01B",
/* pixels */
"             ........             ",
"          ...XXoooXXX...          ",
"         .XXXXXXoooXXXXX.         ",
"       ..oXXOOOOOOOOOOXXX..       ",
"      .oooOO++++++++++OOXXX.      ",
"     .oooO++++++++++++++OXXX.     ",
"    .oooO++++++++++++++++OXXX.    ",
"   ..ooO++++++++++++++++++OXXX.   ",
"   .ooO++++++++++++++++++++OXX.   ",
"  .XXO++++++++++++++++++++++OXX.  ",
" .XXXO++++++++++OO++++++++++OXXX. ",
" .XXO++++++++++OoXO++++++++++OXX. ",
" .XXO+++++++++OooXXO+++++++++OXX. ",
".XXO+++++++++OooXXXXO+++++++++OXX.",
".XXO+++++++++OooXXXXO+++++++++OXX.",
".XXO+++++++++OooXXXXO+++++++++OXX.",
".ooO+++++++++OooXXXXO+++++++++OXX.",
".ooO+++++++++OooXXXXO+++++++++Ooo.",
".XXO+++++++++OooXXXXO+++++++++Ooo.",
".XXO+++++++++OooXXXXO+++++++++OXX.",
".XXO+++++++++OooXXXXO+++++++++OXX.",
" .XXO+++++++++OooXXO+++++++++OXX. ",
" .XXO++++++++++OoXO++++++++++OXX. ",
" .XXXO++++++++++OO++++++++++OXXX. ",
"  .XXO++++++++++++++++++++++OXX.  ",
"   .XXO++++++++++++++++++++Ooo.   ",
"   .XXXO++++++++++++++++++Oooo.   ",
"    .XXXO++++++++++++++++Oooo.    ",
"     .XXXO++++++++++++++Oooo.     ",
"      .XXXOO++++++++++OOooo.      ",
"       ..XXXOOOOOOOOOOXXo..       ",
"         .XXXXXoooXXXXXX.         ",
"          ...XXXoooXX...          ",
"             ........             "
};
