/* XPM */
static char *c8a43f060dca4beb8dc19f17d9da70d6a17ewm2DZQCRx3i0[] = {
/* columns rows colors chars-per-pixel */
"34 34 16 1 ",
"  c None",
". c #131313",
"X c #E07438",
"o c #C64524",
"O c #8E251D",
"+ c #657392",
"@ c #92A1B9",
"# c white",
"$ c #C7CFDD",
"% c #424C6E",
"& c #5D2C28",
"* c #391F21",
"= c #2A2F4E",
"- c #FFC825",
"; c #FFA214",
": c #ED7614",
/* pixels */
"          ....                    ",
"         .XXXX.                   ",
"        .XXXXXX...                ",
"        .XooOO+@@#.               ",
"       .XoooO+@@$$#.              ",
"       .XooO+@@$$$$#.             ",
"       .XoO++@@$$$$$#.            ",
"      .XXoO++@@$$$$$#.            ",
"      .XoOO++@@.$.$.@.            ",
"       .oO.+++@.@.$.@.            ",
"       .OO..+++@@.@.@.            ",
"       .O.  .+++@@@@.             ",
"       .O.   .+++++.              ",
"      .OO.   .OOooX.              ",
"       ..   .@@%OooX.             ",
"           .+@$%+OOO....          ",
"           .+$+%+@@@$&&&.         ",
"           .++%%+@@@@**&.         ",
"           .%%.%++@@@**&.         ",
"           .+@.%%++++**&.         ",
"           .+@.%%%%%=@@&.         ",
"           .+@.-OOOO=+@&......    ",
"           .%%O;@@@@@@@@@@@@$#.   ",
"          .:+@:;@@@@@@@@@@@$#.    ",
"          .:+@:;$$$$$$$$$###.     ",
"           ...+;o++Oo&......      ",
"             .+O$++$O.            ",
"            .+%%.%%..             ",
"            .++$.+@.              ",
"            .+@..+@.              ",
"            .%%..%%.              ",
"            .+@..+@.              ",
"            .++$.++$.             ",
"             ... ...              "
};
