/* XPM */
static char *_9c377268f9f4ae2bf2ffe3cfbd71d355J3F5oVaKJxoJ96G[] = {
/* columns rows colors chars-per-pixel */
"34 34 16 1 ",
"  c #EDAB50",
". c #131313",
"X c #E07438",
"o c white",
"O c #92A1B9",
"+ c #657392",
"@ c #8E251D",
"# c #C64524",
"$ c #C7CFDD",
"% c #424C6E",
"& c #5D2C28",
"* c #391F21",
"= c #2A2F4E",
"- c #FFC825",
"; c #FFA214",
": c #ED7614",
/* pixels */
"                    ....          ",
"                   .XXXX.         ",
"                ...XXXXXX.        ",
"               .oOO+@@##X.        ",
"              .o$$OO+@###X.       ",
"             .o$$$$OO+@##X.       ",
"            .o$$$$$OO++@#X.       ",
"            .o$$$$$OO++@#XX.      ",
"            .O.$.$.OO++@@#X.      ",
"            .O.$.O.O+++.@#.       ",
"            .O.O.OO+++..@@.       ",
"             .OOOO+++.  .@.       ",
"              .+++++.   .@.       ",
"              .X##@@.   .@@.      ",
"             .X##@%OO.   ..       ",
"          ....@@@+%$O+.           ",
"         .&&&$OOO+%+$+.           ",
"         .&**OOOO+%%++.           ",
"         .&**OOO++%.%%.           ",
"         .&**++++%%.O+.           ",
"         .&OO=%%%%%.O+.           ",
"    ......&O+=@@@@-.O+.           ",
"   .o$OOOOOOOOOOOO;@%%.           ",
"    .o$OOOOOOOOOOO;:O+:.          ",
"     .ooo$$$$$$$$$;:O+:.          ",
"      ......&#@++#;+...           ",
"            .@$++$@+.             ",
"             ..%%.%%+.            ",
"              .O+.$++.            ",
"              .O+..O+.            ",
"              .%%..%%.            ",
"              .O+..O+.            ",
"             .$++.$++.            ",
"              ... ...             "
};
