/* XPM */
static char *_a7719220d274c3ab2401d864bf6b508tiJRtlehLysHdaCH[] = {
/* columns rows colors chars-per-pixel */
"34 34 9 1 ",
"  c #EDAB50",
". c gray32",
"X c #565656",
"o c #5F5F5F",
"O c #686868",
"+ c gray27",
"@ c #494949",
"# c black",
"$ c #4E4E4E",
/* pixels */
"                                  ",
"   .XXXXXXXXoOOOOOOOoXXXXXXXX.    ",
"   .X++X@@@oOO#####OOo@@@X++X.    ",
"   oX+@X$.oOO#######OOo$$X@+Xo    ",
"   oX+X$..oO#########OOo.$X+Xo    ",
"   oX@X..oOO##########OOo.X@Xo    ",
"   oX@X..oO############Oo.X@Xo    ",
"    XX$.oOO############Oo.$XX     ",
"    XX$.oO#############OOo.XX     ",
"    X@$oOO##############Oo.@X     ",
"    X@$oO###############Oo.@X     ",
"    X@$oO###############Oo.@X     ",
"    X@$oO###############OOo@X     ",
"    X@oOO################Oo@X     ",
"    X@oO#################Oo@X     ",
"    XoOO#################Oo@X     ",
"    XoO##################OOoX     ",
"    XoO###################OoX     ",
"    XoO###################OoX     ",
"    XoO###################OoX     ",
"    XoO###################OoX     ",
"    XoOO#################OOoX     ",
"    X@oO#################Oo@X     ",
"    X@oO#################Oo@X     ",
"    X@oO################OOo@X     ",
"    X@oOO##############OOo.@X     ",
"    X@$oO##############Oo.$@X     ",
"   oXX$oOO#############Oo.$XXo    ",
"   oXX$.oOO###########OOo.$XXo    ",
"   oX+X$.oOO##########Oo.$X+Xo    ",
"   oX+@X$$oOO########OOo$X@+Xo    ",
"   .X++X@@@oOO#####OOOo@@X++X.    ",
"   .XXXXXXXXXOOOOOOOXXXXXXXXX.    ",
"                                  "
};
