/* XPM */
static char *_508d932cc1844aef7b44697beee0ff4C8j1kRljB4vVx61P[] = {
/* columns rows colors chars-per-pixel */
"34 34 130 2 ",
"   c #3E4C4D",
".  c #424F51",
"X  c #455355",
"o  c #485556",
"O  c #475559",
"+  c #485659",
"@  c #47595A",
"#  c #495A5D",
"$  c #4B5D62",
"%  c #4F5F68",
"&  c #505F64",
"*  c #4E6165",
"=  c #4F6269",
"-  c #516267",
";  c #52646B",
":  c #556A6E",
">  c #556B72",
",  c #596D74",
"<  c #5B7076",
"1  c #5D747B",
"2  c #5F797F",
"3  c #62777E",
"4  c #61797F",
"5  c #5F7B83",
"6  c #637D84",
"7  c #697E86",
"8  c #647C88",
"9  c #648087",
"0  c #6A8086",
"q  c #66848B",
"w  c #6A858D",
"e  c #69888F",
"r  c #70878E",
"t  c #6A8790",
"y  c #6D8C94",
"u  c #6E8F98",
"i  c #718E96",
"p  c #738F98",
"a  c #6F9097",
"s  c #6F9098",
"d  c #739097",
"f  c #74939B",
"g  c #79959D",
"h  c #7696A1",
"j  c #7997A1",
"k  c #7896A1",
"l  c #7A97A0",
"z  c #7997A2",
"x  c #7798A2",
"c  c #7799A2",
"v  c #7799A3",
"b  c #779AA2",
"n  c #7798A2",
"m  c #7998A0",
"M  c #7A98A0",
"N  c #7B98A0",
"B  c #7B98A1",
"V  c #7899A2",
"C  c #7899A3",
"Z  c #7D98A1",
"A  c #7C9AA0",
"S  c #799BA5",
"D  c #7A9BA4",
"F  c #7D9BA4",
"G  c #7C9AA5",
"H  c #7D9BA5",
"J  c #7C99A6",
"K  c #7D9AA6",
"L  c #7D9BA6",
"P  c #7D9AA7",
"I  c #7D9BA7",
"U  c #7B9CA7",
"Y  c #7B9DA7",
"T  c #7C9CA4",
"R  c #7F9CA4",
"E  c #7E9CA5",
"W  c #7D9CA7",
"Q  c #7E9CA7",
"!  c #7B9AA3",
"~  c #7D9AA8",
"^  c #7D9DA8",
"/  c #7E9FAA",
"(  c #7E9EAA",
")  c #7FA1AB",
"_  c #809EA6",
"`  c #819EA6",
"'  c #819EA7",
"]  c #819FA8",
"[  c #829FA8",
"{  c #819EAB",
"}  c #819FA8",
"|  c #81A0A9",
" . c #83A0A9",
".. c #80A0AB",
"X. c #82A0AA",
"o. c #84A1AA",
"O. c #85A0AB",
"+. c #84A1AB",
"@. c #85A2AA",
"#. c #86A1AC",
"$. c #84A2AC",
"%. c #86A3AC",
"&. c #84A3AE",
"*. c #87A2AE",
"=. c #86A5AD",
"-. c #86A4AF",
";. c #87A5AF",
":. c #87A6AE",
">. c #83A2AD",
",. c #89A2AC",
"<. c #8BA4AF",
"1. c #85A5B3",
"2. c #86A6B1",
"3. c #89A7B4",
"4. c #8CABB6",
"5. c #8DACB6",
"6. c #8AA9B4",
"7. c #90A8B3",
"8. c #90A9B4",
"9. c #90AAB4",
"0. c #90AAB5",
"q. c #91AAB5",
"w. c #92ABB6",
"e. c #98AFB9",
"r. c #9AB6C0",
"t. c #9BB7C1",
"y. c #9AB6C2",
"u. c #9BB8C2",
"i. c #9CB8C3",
"p. c #9DB9C4",
/* pixels */
",.q.q.q.q.q.q.7.q.q.q.q.q.q.<.p 1 6 $.y.p.i.u.y.y.u.u.y.y.y.y.u.y.e.",
"X.W f y y y y y y y y y y f f e : 4 { 3.$.W g g g g g g g g g M F o.",
"f y q q q q q q q q q q q q q , # 3 l n g f a a a y y y y y d f f i ",
"i e q q q q q q q q q q q q 6 ; + 3 f f s a a a a y y y y y a a y e ",
"y q q q q q q q q q q q q q 5 ; O 3 f y y y y y a a a a a a a y y q ",
"6 2 6 q q q q q q q q q 6 2 > * O 2 t 9 q e y y y y y y y y y e 6 2 ",
"> = > 2 2 2 2 2 2 2 2 2 , ; $ # O > 1 > , 4 9 9 9 9 9 9 9 9 6 1 ; ; ",
"* $ $ $ $ $ $ $ $ $ $ $ $ $ # + X # - * * ; ; ; ; ; ; ; ; ; ; ; % & ",
"                                                                    ",
"` [ o.o.o.F 6 # < i F W F F F F F F ~ F F F F l w + # q W $.$.o.o.o.",
"$.X.[ [ :.:.y * w ^ 1.X.U M M M n n M n n n S U f - * g 4.5.:.[ [ ` ",
"[ M M M W F q * i ^ U h f f f f f a s f f f f f w & - F :.X.W M l M ",
"` g g g l f 6 * p M f f u y u s a y y y y y y y 6 # - g ` M g g f g ",
"` g g g g f 6 * p n f s y y y a a s a y y y y y 6 + - g R g g f f g ",
"` g g g f i 6 * p f e t y y a a a a a a y y t q 1 + - g g i f g g g ",
"F g f i t e 5 $ w 8 > 2 e t t t t t t t t q 2 ; ; + * r 7 3 w d d f ",
"y e e q q q 2 # ; ; ; ; ; ; ; ; ; ; ; ; ; ; ; ; % + + , , , < 1 1 1 ",
"$ $ $ $ $ $ # . X X X X X X X X X X X X X X X X X . . O + + + + + + ",
"w t t w w w w w w w w w w w q < # @ < 6 6 6 6 6 6 6 6 6 6 6 6 6 6 6 ",
"$.>.S g f f f f f f f f f l l y ; : y l f y t t y y t t t t t y y f ",
":.^ n f f f f f f f f u s g h w ; 1 f h f t e t t q q e t t t t y i ",
"W g f y y s a a a a y y y s y 2 $ 1 y y t e q e q q q q q q q q e q ",
"M f a a a s y a a a y y y a e , # 1 t t q q q q q q q q q q q q q 6 ",
"f y y y s y y y s s y y y y q > # 1 t q q q q q q q q q q q q q 6 2 ",
"6 2 q t y y t y y y t t q 6 , ; # < 6 > < 6 q q q q q q q q q 2 : ; ",
", ; > < 1 1 1 1 1 1 < < , ; ; % + $ ; $ % ; > > > > > > > > > = $ $ ",
"+ O + + + + + + O o O O O O X X . . X X X X X X X X X X X X X X X X ",
"< < < < < : $ X $ : < 1 1 1 1 1 1 < 1 1 1 1 1 < : @ X * > < < < < < ",
"p i i i f p 2 # 6 g W F g g g g g g g g g g g g i ; # q f l f i i i ",
"M g f f S M 6 $ f 1.6.X.F M F F F F F F F F W [ M : - f >.) S g f f ",
"M a y y f y < # g $.X.M f f g g g g g g g f g g i - - f U g f y y y ",
"M y y y a q ; # g ` M g f f g g g f g g g g g f q $ - f g y y y a y ",
"M u y y y 9 ; # g W g g g g f g g f g g g g g p 0 $ ; p f y y y a a ",
"M f s e 6 < ; # g f w i f g f g g g g g g f y 7 3 $ ; y q 6 q a a s "
};
