/* XPM */
static char *_e607fe34b36483cc82021033fcc38641rzUwzaaxST9J0v4[] = {
/* columns rows colors chars-per-pixel */
"30 30 121 2 ",
"   c #3E4C4D",
".  c #404D4F",
"X  c #424F51",
"o  c #445153",
"O  c #47565B",
"+  c #48575A",
"@  c #475B5D",
"#  c #495A5D",
"$  c #4B5C61",
"%  c #4D6166",
"&  c #4F6269",
"*  c #506264",
"=  c #52646B",
"-  c #586569",
";  c #55686E",
":  c #556770",
">  c #556B72",
",  c #596D75",
"<  c #5C7176",
"1  c #5D747C",
"2  c #5F787F",
"3  c #61747A",
"4  c #63797F",
"5  c #647D84",
"6  c #637F88",
"7  c #6A8187",
"8  c #66848C",
"9  c #69858D",
"0  c #69888F",
"q  c #70878D",
"w  c #6C8C94",
"e  c #6E8F99",
"r  c #718D96",
"t  c #748F99",
"y  c #6F9097",
"u  c #6F9098",
"i  c #709097",
"p  c #75939C",
"a  c #7A969B",
"s  c #79939F",
"d  c #78959D",
"f  c #78969D",
"g  c #78979D",
"h  c #79979D",
"j  c #7A969D",
"k  c #79959F",
"l  c #78969E",
"z  c #79969E",
"x  c #79969F",
"c  c #79969E",
"v  c #7696A1",
"b  c #7A97A1",
"n  c #7896A0",
"m  c #7799A2",
"M  c #7798A3",
"N  c #769AA2",
"B  c #7A98A1",
"V  c #7899A3",
"C  c #799AA3",
"Z  c #7C98A3",
"A  c #7F99A2",
"S  c #7C9AA2",
"D  c #7D9BA3",
"F  c #7898A4",
"G  c #7A99A5",
"H  c #7A9BA4",
"J  c #7D9BA4",
"K  c #7D9BA5",
"L  c #7E9AA4",
"P  c #7E9BA4",
"I  c #799CA6",
"U  c #7B9CA7",
"Y  c #7A9AA3",
"T  c #7F9FAA",
"R  c #809EA6",
"E  c #819EA7",
"W  c #809EA8",
"Q  c #809FAA",
"!  c #829FA9",
"~  c #82A0AA",
"^  c #84A5AF",
"/  c #82A1AB",
"(  c #89A2AC",
")  c #88A6AF",
"_  c #83A5B1",
"`  c #85A4B1",
"'  c #85A5B1",
"]  c #85A7B1",
"[  c #86A6B1",
"{  c #85A5B2",
"}  c #85A5B3",
"|  c #86A5B3",
" . c #85A5B4",
".. c #86A6B4",
"X. c #85A5B2",
"o. c #8AA7B2",
"O. c #88A7B6",
"+. c #86A8B5",
"@. c #8AA9B2",
"#. c #8BAAB5",
"$. c #8FABB7",
"%. c #8DACB4",
"&. c #8DACB6",
"*. c #89AAB5",
"=. c #8EAEB9",
"-. c #90A8B3",
";. c #90A9B4",
":. c #90AAB4",
">. c #90AAB5",
",. c #91AAB5",
"<. c #92ABB6",
"1. c #93ACB7",
"2. c #90AFB8",
"3. c #90AEB9",
"4. c #98AFB9",
"5. c #8FB0B7",
"6. c #8FB0BB",
"7. c #9BB7C1",
"8. c #9BB8C2",
"9. c #9CB8C3",
"0. c #9EBAC6",
/* pixels */
"( 1.,.,.,.,.-.,.,.,.,.,.,.s 1 5 $.0.9.8.7.7.8.8.7.7.7.7.7.4.",
"Q M w 8 9 9 9 9 9 9 9 8 p w = 5 [ [ G i i i y y y w i i p Q ",
"r 8 8 8 8 8 8 8 8 8 8 8 8 > o 5 C u u y y y w w w w i y u 0 ",
"r 9 8 9 6 8 8 8 8 8 8 8 8 > o 5 G i y y y y y y y y y y y 9 ",
"0 6 8 8 8 8 8 8 8 8 8 8 6 ; o 5 p 0 w w w y y y y y y w 9 8 ",
"> & 1 6 6 6 6 6 6 6 6 , $ $ o 1 5 = 1 0 0 0 9 9 9 0 0 5 = = ",
"& $ $ % % % % % % % % $ $ # o # ; * = ; ; ; ; ; ; ; ; ; * * ",
"                                                            ",
"@.%.%.%.5.r # 1 G O.[ [ [ [ [ [ ..[ ^ [ [ p # # C 3.3.$.$.$.",
"~ L L D %.b $ r _ ..C p p p p p p p p p U D - * #.=.@.L L L ",
"E z z z L w # i U p i u u u y w w y e e i 9 # = o.L D z p z ",
"E i p z z w # t M y u w w u y y y w w w y 5 + = ) z z p t z ",
"E p z z z w @ t M i u w w y y y y y w r i 5 + = ) a z z p z ",
"E z z w 0 8 @ r 8 ; 9 i i i i i i y i 8 ; = + = D 3 5 z z z ",
"w 0 0 9 9 8 # * ; * ; ; : ; ; ; : : : = * * + + 3 , < 3 3 3 ",
"$ # # # # # X X o o o o o o o o o o o o o o X . O O O O o o ",
"t p i t t t t t i t t i i 6 $ @ 6 w w 0 w w w w w w w 0 0 8 ",
"#.[ G p p p p p p p p p / b ; < G T p w w w w w w w w w e b ",
"~ n i w w y u y y w w w p 8 % 1 n e w 8 9 9 8 8 8 9 9 9 9 9 ",
"C y y w y u y y y w w w y 1 + 1 e 8 8 8 8 8 8 8 8 8 8 8 8 6 ",
"C i u u u w w u u u u y i 1 + 1 e 8 8 8 8 8 8 8 8 8 8 8 9 6 ",
"7 1 w y y w y y y w w 8 1 ; O 1 6 > 2 8 8 8 8 8 8 8 8 5 > ; ",
", = , 1 1 1 1 1 1 1 1 > * * O $ = $ & > > > > > > > > = $ $ ",
"O o o o o o o o o o o o o o X . o o o o o o o X X o o o o o ",
"4 5 5 5 5 = o % 1 5 5 5 5 5 5 5 5 5 5 5 5 1 # o > 5 4 5 5 4 ",
"U C C C ..e # r #.6.^ ~ ~ ~ ~ ~ ~ ~ ~ ~ ^ ^ , $ T +._ C C C ",
"C y w w U 8 + j @.^ b i p z z z z z p p D D ; % [ U C i y w ",
"C w w w i > o a Q z i i z z z a p z p i z 0 $ * T y w w y w ",
"C w w y i > o a Q z z z i z z z z z z z z q $ * T i w w y y ",
"C u y 6 1 : o d d 7 i z i z z z z z z r 7 5 $ * n 1 6 y y u "
};
